<svg width="40" height="30" viewBox="0 0 40 30" fill="none" xmlns="http://www.w3.org/2000/svg">
<g clip-path="url(#clip0_0_53)">
<path fill-rule="evenodd" clip-rule="evenodd" d="M0 0H60.0064V19.9277H0V0Z" fill="#B20000"/>
<path fill-rule="evenodd" clip-rule="evenodd" d="M0 19.9277H60.0064V30H0V19.9277Z" fill="#429F00"/>
<path fill-rule="evenodd" clip-rule="evenodd" d="M0 0H6.64524V30H0V0Z" fill="white"/>
<path fill-rule="evenodd" clip-rule="evenodd" d="M0.316437 0.509766H0.632877V1.01953H0.316437V0.509766ZM1.26576 0.509766H2.21508V1.01953H1.26576V0.509766ZM1.5822 0H1.89864V0.509766H1.5822V0ZM3.1644 0H3.48084V0.509766H3.1644V0ZM4.43016 0.509766H5.37948V1.01953H4.43016V0.509766ZM4.7466 0H5.06304V0.509766H4.7466V0ZM0.949317 1.01953H1.5822V1.52344H0.949317V1.01953ZM1.89864 1.01953H2.53152V1.52344H1.89864V1.01953ZM4.11372 1.01953H4.7466V1.52344H4.11372V1.01953ZM5.06304 1.01953H5.69592V1.52344H5.06304V1.01953ZM0.632877 1.52344H1.26576V2.0332H0.632877V1.52344ZM2.21508 1.52344H2.84796V2.0332H2.21508V1.52344ZM3.79728 1.52344H4.43016V2.0332H3.79728V1.52344ZM5.37948 1.52344H6.01236V2.0332H5.37948V1.52344ZM6.01236 0.509766H6.3288V1.01953H6.01236V0.509766ZM0.316437 2.0332H0.949317V2.54297H0.316437V2.0332ZM2.53152 2.0332H3.1644V2.54297H2.53152V2.0332ZM5.69592 2.0332H6.3288V2.54297H5.69592V2.0332ZM0.632877 3.55664H1.26576V4.06641H0.632877V3.55664ZM0.949317 4.06641H1.5822V4.57617H0.949317V4.06641ZM2.21508 3.5625H2.84796V4.06641H2.21508V3.5625ZM1.89864 4.06641H2.53152V4.57617H1.89864V4.06641ZM1.26576 4.57617H2.21508V5.08594H1.26576V4.57617Z" fill="#B20000"/>
<path fill-rule="evenodd" clip-rule="evenodd" d="M1.5822 5.08594H1.89864V5.5957H1.5822V5.08594ZM3.79728 3.5625H4.43016V4.06641H3.79728V3.5625ZM4.11372 4.06641H4.7466V4.57617H4.11372V4.06641ZM5.37948 3.5625H6.01236V4.06641H5.37948V3.5625ZM5.06304 4.06641H5.69592V4.57617H5.06304V4.06641ZM4.43016 4.57617H5.37948V5.08594H4.43016V4.57617ZM4.7466 5.08594H5.06304V5.5957H4.7466V5.08594ZM3.1644 4.57031H3.48084V5.08008H3.1644V4.57031ZM0 4.57031H0.31644V5.08008H0V4.57031ZM6.3288 4.57031H6.64524V5.08008H6.3288V4.57031ZM1.5822 7.11328H1.89864V7.62305H1.5822V7.11328ZM1.26576 7.62891H2.21508V8.13281H1.26576V7.62891ZM0.94932 8.13281H2.53152V8.64258H0.94932V8.13281ZM4.7466 7.11914H5.06304V7.62891H4.7466V7.11914ZM4.43016 7.62891H5.37948V8.13281H4.43016V7.62891ZM4.11372 8.13281H5.69592V8.64258H4.11372V8.13281ZM4.43016 10.6758H6.01236V11.1855H4.43016V10.6758ZM3.79728 8.64258H6.01236V9.15234H3.79728V8.64258ZM0.63288 8.64258H2.84796V9.15234H0.63288V8.64258ZM0.94932 11.1855H1.89864V11.6953H0.94932V11.1855ZM0.63288 10.6758H2.21508V11.1855H0.63288V10.6758ZM5.06304 9.66797H6.64524V10.1777H5.06304V9.66797ZM4.7466 11.1914H5.69592V11.7012H4.7466V11.1914Z" fill="#B20000"/>
<path fill-rule="evenodd" clip-rule="evenodd" d="M1.26576 11.6953H1.5822V12.2051H1.26576V11.6953ZM5.06304 11.6953H5.37948V12.2051H5.06304V11.6953ZM0 9.66211H1.5822V10.1719H0V9.66211ZM2.84796 10.6758H3.79728V11.1855H2.84796V10.6758ZM3.1644 11.1914H3.48084V11.7012H3.1644V11.1914ZM2.21508 9.66797H4.43016V10.1777H2.21508V9.66797ZM3.48084 2.0332H4.11372V2.54297H3.48084V2.0332ZM2.84796 2.54297H3.79728V3.05273H2.84796V2.54297ZM2.53152 3.05273H3.1644V3.55664H2.53152V3.05273ZM3.48084 3.05273H4.11372V3.55664H3.48084V3.05273ZM0 2.54297H0.63288V3.05273H0V2.54297ZM0.31644 3.05273H0.94932V3.55664H0.31644V3.05273ZM6.01236 2.54297H6.64524V3.04687H6.01236V2.54297ZM5.69592 3.04687H6.3288V3.55078H5.69592V3.04687ZM0 7.61719H0.31644V8.12695H0V7.61719ZM6.3288 7.61719H6.64524V8.12695H6.3288V7.61719ZM2.84796 11.6895H3.79728V12.1992H2.84796V11.6895ZM2.53152 12.1992H3.1644V12.7031H2.53152V12.1992ZM3.48084 12.1992H4.11372V12.7031H3.48084V12.1992ZM2.21508 12.7031H2.84796V13.2129H2.21508V12.7031ZM3.79728 12.7031H4.43016V13.2129H3.79728V12.7031ZM1.89864 13.2129H2.53152V13.7227H1.89864V13.2129ZM4.11372 13.2129H4.7466V13.7227H4.11372V13.2129ZM1.5822 13.7285H2.21508V14.2383H1.5822V13.7285ZM4.43016 13.7285H5.06304V14.2383H4.43016V13.7285ZM0.94932 14.2383H1.89864V14.748H0.94932V14.2383ZM4.7466 14.2383H5.69592V14.748H4.7466V14.2383ZM5.37948 13.7285H6.01236V14.2383H5.37948V13.7285ZM5.69592 13.2188H6.3288V13.7285H5.69592V13.2188ZM6.01236 12.709H6.64524V13.2188H6.01236V12.709ZM0.63288 13.7285H1.26576V14.2383H0.63288V13.7285ZM0.31644 13.2188H0.94932V13.7285H0.31644V13.2188ZM0 12.7148H0.63288V13.2246H0V12.7148ZM1.26576 14.7539H1.5822V15.2578H1.26576V14.7539ZM5.06304 14.7539H5.37948V15.2578H5.06304V14.7539ZM3.1644 13.2305H3.48084V13.7344H3.1644V13.2305ZM2.21508 14.7539H2.53152V15.2578H2.21508V14.7539ZM4.11372 14.7539H4.43016V15.2578H4.11372V14.7539ZM3.1644 14.7539H3.48084V15.2578H3.1644V14.7539ZM0 14.7539H0.31644V15.2578H0L0 14.7539ZM6.3288 14.7539H6.64524V15.2578H6.3288V14.7539ZM3.1644 7.62891H3.48084V8.13281H3.1644V7.62891ZM1.5822 2.54297H1.89864V3.05273H1.5822V2.54297ZM4.7466 2.54297H5.06304V3.05273H4.7466V2.54297ZM2.84796 6.09961H3.79728V6.60938H2.84796V6.09961ZM2.21508 6.60938H3.1644V7.11914H2.21508V6.60938ZM2.53152 7.11914H2.84796V7.62891H2.53152V7.11914ZM1.89864 6.09961H2.53152V6.60938H1.89864V6.09961ZM2.21508 5.5957H3.1644V6.09961H2.21508V5.5957ZM2.53152 5.08594H2.84796V5.5957H2.53152V5.08594ZM3.48084 5.5957H4.43016V6.09961H3.48084V5.5957ZM3.79728 5.08594H4.11372V5.5957H3.79728V5.08594ZM4.11372 6.09961H4.7466V6.60938H4.11372V6.09961ZM3.48084 6.60938H4.43016V7.11914H3.48084V6.60938ZM3.79728 7.11914H4.11372V7.62891H3.79728V7.11914ZM5.06304 6.09961H5.69592V6.60938H5.06304V6.09961ZM5.37948 5.5957H6.3288V6.09961H5.37948V5.5957ZM6.01236 6.09961H6.64524V6.60938H6.01236V6.09961ZM5.37948 6.60938H6.3288V7.11914H5.37948V6.60938ZM5.69592 7.11914H6.01236V7.62891H5.69592V7.11914ZM5.69592 5.08594H6.01236V5.5957H5.69592V5.08594ZM0 6.09375H0.63288V6.60352H0V6.09375ZM0.31644 5.58984H1.26576V6.09375H0.31644V5.58984ZM0.94932 6.09375H1.5822V6.60352H0.94932V6.09375ZM0.31644 6.60352H1.26576V7.11328H0.31644V6.60352Z" fill="#B20000"/>
<path fill-rule="evenodd" clip-rule="evenodd" d="M0.63288 7.11914H0.94932V7.62891H0.63288V7.11914ZM0.63288 5.08594H0.94932V5.5957H0.63288V5.08594ZM0.31644 9.15234H1.5822V9.66211H0.31644V9.15234ZM1.89864 9.15234H3.1644V9.66211H1.89864V9.15234ZM3.48084 9.15234H4.7466V9.66211H3.48084V9.15234ZM5.06304 9.15234H6.3288V9.66211H5.06304V9.15234ZM2.53152 10.1719H4.11372V10.6758H2.53152V10.1719ZM0.31644 10.1719H1.89864V10.6758H0.31644V10.1719ZM4.7466 10.1719H6.3288V10.6758H4.7466V10.1719ZM6.3288 12.2051H6.64524V12.709H6.3288V12.2051ZM0 12.2051H0.31644V12.709H0V12.2051ZM0.31644 29.4902H0.63288V28.9863H0.31644V29.4902ZM1.26576 29.4902H2.21508V28.9863H1.26576V29.4902ZM1.5822 30H1.89864V29.4902H1.5822V30ZM3.1644 30H3.48084V29.4902H3.1644V30ZM4.43016 29.4902H5.37948V28.9805H4.43016V29.4902ZM4.7466 30H5.06304V29.4902H4.7466V30ZM0.94932 28.9805H1.5822V28.4766H0.94932V28.9805ZM1.89864 28.9805H2.53152V28.4766H1.89864V28.9805ZM4.11372 28.9805H4.7466V28.4766H4.11372V28.9805ZM5.06304 28.9805H5.69592V28.4766H5.06304V28.9805ZM2.21508 28.4766H2.84796V27.9668H2.21508V28.4766ZM3.79728 28.4766H4.43016V27.9668H3.79728V28.4766ZM5.37948 28.4766H6.01236V27.9668H5.37948V28.4766ZM6.01236 29.4902H6.3288V28.9805H6.01236V29.4902ZM0.31644 27.9668H0.94932V27.457H0.31644V27.9668ZM2.53152 27.9668H3.1644V27.457H2.53152V27.9668ZM5.69592 27.9668H6.3288V27.457H5.69592V27.9668ZM0.63288 26.4434H1.26576V25.9336H0.63288V26.4434ZM0.94932 25.9336H1.5822V25.4238H0.94932V25.9336ZM2.21508 26.4434H2.84796V25.9336H2.21508V26.4434ZM1.89864 25.9336H2.53152V25.4238H1.89864V25.9336ZM1.26576 25.4238H2.21508V24.9141H1.26576V25.4238ZM1.5822 24.9141H1.89864V24.4102H1.5822V24.9141ZM3.79728 26.4375H4.43016V25.9336H3.79728V26.4375ZM4.11372 25.9336H4.7466V25.4238H4.11372V25.9336ZM5.37948 26.4434H6.01236V25.9336H5.37948V26.4434ZM5.06304 25.9336H5.69592V25.4238H5.06304V25.9336ZM4.43016 25.4238H5.37948V24.9141H4.43016V25.4238ZM4.7466 24.9141H5.06304V24.4102H4.7466V24.9141ZM3.1644 25.4297H3.48084V24.9199H3.1644V25.4297ZM0 25.4297H0.31644V24.9199H0V25.4297ZM6.3288 25.4297H6.64524V24.9199H6.3288V25.4297ZM1.5822 22.8867H1.89864V22.377H1.5822V22.8867ZM1.26576 22.3711H2.21508V21.8672H1.26576V22.3711ZM0.94932 21.8672H2.53152V21.3574H0.94932V21.8672ZM4.7466 22.8809H5.06304V22.3711H4.7466V22.8809Z" fill="#B20000"/>
<path fill-rule="evenodd" clip-rule="evenodd" d="M4.43016 22.3711H5.37948V21.8672H4.43016V22.3711ZM4.11372 21.8672H5.69592V21.3574H4.11372V21.8672ZM4.43016 19.3242H6.01236V18.8086H4.43016V19.3242ZM3.79728 21.3574H6.01236V20.8477H3.79728V21.3574ZM0.63288 21.3574H2.84796V20.8477H0.63288V21.3574ZM0.94932 18.8145H1.89864V18.3047H0.94932V18.8145ZM0.63288 19.3242H2.21508V18.8086H0.63288V19.3242ZM5.06304 20.332H6.64524V19.8223H5.06304V20.332ZM4.7466 18.8086H5.69592V18.2988H4.7466V18.8086ZM0 20.332H1.5822V19.8223H0V20.332ZM2.84796 19.3184H3.79728V18.8086H2.84796V19.3184ZM3.1644 18.8086H3.48084V18.2988H3.1644V18.8086ZM2.21508 20.332H4.43016V19.8223H2.21508V20.332ZM3.48084 27.9609H4.11372V27.4512H3.48084V27.9609ZM2.84796 27.4512H3.79728V26.9531H2.84796V27.4512ZM2.53152 26.9414H3.1644V26.4316H2.53152V26.9414ZM3.48084 26.9414H4.11372V26.4316H3.48084V26.9414ZM0 27.457H0.63288V26.9531H0V27.457ZM0.31644 26.9473H0.94932V26.4434H0.31644V26.9473ZM6.01236 27.457H6.64524V26.9531H6.01236V27.457ZM5.69592 26.9473H6.3288V26.4434H5.69592V26.9473ZM0 22.3828H0.31644V21.873H0V22.3828ZM6.3288 22.3828H6.64524V21.873H6.3288V22.3828ZM2.53152 17.8008H3.1644V17.2969H2.53152V17.8008ZM3.48084 17.8008H4.11372V17.2969H3.48084V17.8008ZM2.21508 17.2969H2.84796V16.7871H2.21508V17.2969ZM3.79728 17.2969H4.43016V16.7871H3.79728V17.2969ZM1.89864 16.7871H2.53152V16.2773H1.89864V16.7871ZM4.11372 16.7871H4.7466V16.2773H4.11372V16.7871ZM1.5822 16.2715H2.21508V15.7617H1.5822V16.2715ZM4.43016 16.2715H5.06304V15.7617H4.43016V16.2715ZM0.94932 15.7617H1.89864V15.252H0.94932V15.7617ZM4.7466 15.7617H5.69592V15.252H4.7466V15.7617ZM5.37948 16.2715H6.01236V15.7617H5.37948V16.2715ZM5.69592 16.7812H6.3288V16.2715H5.69592V16.7812ZM6.01236 17.291H6.64524V16.7812H6.01236V17.291ZM0.63288 16.2715H1.26576V15.7617H0.63288V16.2715ZM0.31644 16.7812H0.94932V16.2715H0.31644V16.7812ZM0 17.2852H0.63288V16.7754H0V17.2852ZM1.26576 15.2461H1.5822V14.7422H1.26576V15.2461ZM3.1644 16.7695H3.48084V16.2656H3.1644V16.7695ZM3.1644 22.3652H3.48084V21.8613H3.1644V22.3652ZM1.5822 27.4512H1.89864V26.9531H1.5822V27.4512ZM4.7466 27.4512H5.06304V26.9531H4.7466V27.4512ZM2.84796 23.9062H3.79728V23.3965H2.84796V23.9062ZM2.21508 23.3965H3.1644V22.8867H2.21508V23.3965ZM2.53152 22.8867H2.84796V22.377H2.53152V22.8867ZM1.89864 23.9062H2.53152V23.3965H1.89864V23.9062ZM2.21508 24.4043H3.1644V23.9062H2.21508V24.4043ZM2.53152 24.9141H2.84796V24.4102H2.53152V24.9141ZM3.48084 24.4043H4.43016V23.9062H3.48084V24.4043ZM3.79728 24.9141H4.11372V24.4102H3.79728V24.9141ZM4.11372 23.9004H4.7466V23.3906H4.11372V23.9004ZM3.48084 23.3906H4.43016V22.8809H3.48084V23.3906ZM3.79728 22.8809H4.11372V22.3711H3.79728V22.8809ZM5.06304 23.9062H5.69592V23.3965H5.06304V23.9062ZM5.37948 24.4043H6.3288V23.9062H5.37948V24.4043ZM6.01236 23.9004H6.64524V23.3906H6.01236V23.9004ZM5.37948 23.3906H6.3288V22.8809H5.37948V23.3906ZM5.69592 22.8809H6.01236V22.3711H5.69592V22.8809ZM5.69592 24.9141H6.01236V24.4102H5.69592V24.9141ZM0 23.9062H0.63288V23.3965H0V23.9062ZM0.31644 24.4043H1.26576V23.9062H0.31644V24.4043Z" fill="#B20000"/>
<path fill-rule="evenodd" clip-rule="evenodd" d="M0.94932 23.9004H1.5822V23.3906H0.94932V23.9004ZM0.31644 23.3906H1.26576V22.8809H0.31644V23.3906ZM0.63288 22.8809H0.94932V22.3711H0.63288V22.8809ZM0.63288 24.9141H0.94932V24.4102H0.63288V24.9141ZM0.31644 20.8477H1.5822V20.3379H0.31644V20.8477ZM1.89864 20.8477H3.1644V20.3379H1.89864V20.8477ZM3.48084 20.8477H4.7466V20.3379H3.48084V20.8477ZM5.06304 20.8477H6.3288V20.3379H5.06304V20.8477ZM2.53152 19.8281H4.11372V19.3242H2.53152V19.8281ZM0.31644 19.8281H1.89864V19.3242H0.31644V19.8281ZM4.7466 19.8281H6.3288V19.3242H4.7466V19.8281ZM6.3288 17.8008H6.64524V17.2852H6.3288V17.8008ZM0 17.8008H0.31644V17.2852H0V17.8008ZM2.84796 15.252H3.1644V15.7617H2.84796V15.252ZM3.48084 15.252H3.79728V15.7617H3.48084V15.252ZM3.48084 14.2383H3.79728V14.748H3.48084V14.2383ZM2.84796 14.2383H3.1644V14.748H2.84796V14.2383ZM0.63288 27.9668H1.26576V28.4766H0.63288V27.9668ZM5.06304 18.3047H5.37948V17.7949H5.06304V18.3047ZM1.26576 18.3047H1.5822V17.7949H1.26576V18.3047ZM2.84796 17.7949H3.79728V18.3047H2.84796V17.7949Z" fill="#B20000"/>
</g>
<defs>
<clipPath id="clip0_0_53">
<rect width="40" height="30" fill="white"/>
</clipPath>
</defs>
</svg>
