<svg width="40" height="30" viewBox="0 0 40 30" fill="none" xmlns="http://www.w3.org/2000/svg">
<g clip-path="url(#clip0_0_31)">
<path d="M-10.04 0H50.1199V30.08H-10.04V0Z" fill="#012169"/>
<path d="M-10.04 0V3.3605L43.3931 30.08H50.1199V26.7195L-3.31317 0H-10.04ZM50.1199 0V3.3605L-3.31317 30.08H-10.04V26.7195L43.3931 0H50.1199Z" fill="white"/>
<path d="M15.0286 0V30.08H25.0513V0H15.0286ZM-10.04 10.0286V20.0514H50.1199V10.0286H-10.04Z" fill="white"/>
<path d="M-10.04 12.032V18.048H50.1199V12.032H-10.04ZM17.032 0V30.08H23.048V0H17.032ZM-10.04 30.08L10.0113 20.0514H14.4998L-5.55741 30.08H-10.04ZM-10.04 0L10.0113 10.0286H5.52871L-10.04 2.24425V0ZM25.586 10.0286L45.6373 0H50.1199L30.0686 10.0286H25.586ZM50.1199 30.08L30.0686 20.0514H34.5512L50.1199 27.8357V30.08Z" fill="#C8102E"/>
</g>
<defs>
<clipPath id="clip0_0_31">
<rect width="40" height="30" fill="white"/>
</clipPath>
</defs>
</svg>
