<svg width="25" height="25" viewBox="0 0 25 25" fill="none" xmlns="http://www.w3.org/2000/svg">
<g clip-path="url(#clip0_0_10)">
<path d="M8.94251 0.521033C6.12977 1.35709 3.70117 3.15672 2.08261 5.60436C1.86033 6.00542 1.72152 6.44729 1.67458 6.90341V2.51494H0.00912476V9.17675H6.67093V7.5113H2.90701C4.77169 3.92407 8.45744 1.65245 12.5 1.59895C17.2942 1.65469 21.4964 4.81816 22.8758 9.40992L24.4746 8.93526C22.5091 2.32264 15.5551 -1.44451 8.94251 0.521033Z" fill="white"/>
<path d="M18.3291 15.8385V17.504H22.093C20.2283 21.0912 16.5426 23.3629 12.5 23.4164C7.70586 23.3606 3.50367 20.1971 2.12426 15.6054L0.525421 16.08C2.4994 22.6901 9.45818 26.4484 16.0683 24.4744C18.9634 23.6099 21.4471 21.7251 23.059 19.1694C23.2317 18.8435 23.3231 18.4807 23.3255 18.1119V22.5004H24.9909V15.8385H18.3291Z" fill="white"/>
</g>
<defs>
<clipPath id="clip0_0_10">
<rect width="25" height="25" fill="white"/>
</clipPath>
</defs>
</svg>
