<svg width="40" height="30" viewBox="0 0 40 30" fill="none" xmlns="http://www.w3.org/2000/svg">
<g clip-path="url(#clip0_0_39)">
<path fill-rule="evenodd" clip-rule="evenodd" d="M0 0H57V2.30859H0V0ZM0 4.61719H57V6.92578H0V4.61719ZM0 9.22852H57V11.543H0V9.22852ZM0 13.8457H57V16.1543H0V13.8457ZM0 18.4629H57V20.7715H0V18.4629ZM0 23.0742H57V25.3828H0V23.0742ZM0 27.6914H57V30H0V27.6914Z" fill="#BD3D44"/>
<path fill-rule="evenodd" clip-rule="evenodd" d="M0 2.3086H57V4.61719H0V2.3086ZM0 6.92578H57V9.22852H0V6.92578ZM0 11.5371H57V13.8457H0V11.5371ZM0 16.1543H57V18.4629H0V16.1543ZM0 20.7715H57V23.0801H0V20.7715ZM0 25.3828H57V27.6914H0V25.3828Z" fill="white"/>
<path fill-rule="evenodd" clip-rule="evenodd" d="M0 0H22.7988V16.1543H0V0Z" fill="#192F5D"/>
<path fill-rule="evenodd" clip-rule="evenodd" d="M1.89844 0.691406L2.10938 1.33008H2.77734L2.23828 1.72266L2.44336 2.36719L1.89844 1.96875L1.35938 2.36133L1.56445 1.72266L1.01953 1.33008H1.69922L1.89844 0.691406ZM5.70117 0.691406L5.90625 1.33008H6.58008L6.03516 1.72266L6.24023 2.36719L5.70117 1.96875L5.15625 2.36133L5.36133 1.72266L4.82227 1.33008H5.49023L5.70117 0.691406ZM9.49805 0.691406L9.70899 1.33008H10.3711L9.83203 1.72266L10.0371 2.36719L9.49219 1.96875L8.95313 2.36133L9.15821 1.72266L8.61328 1.33008H9.28711L9.49805 0.691406ZM13.3008 0.691406L13.5059 1.33008H14.1797L13.6348 1.72266L13.8457 2.36719L13.3008 1.96875L12.7559 2.36133L12.9668 1.72266L12.4219 1.33008H13.0898L13.3008 0.691406ZM17.0977 0.691406L17.3086 1.33008H17.9766L17.4375 1.72266L17.6426 2.36719L17.0977 1.96875L16.5586 2.36133L16.7637 1.72266L16.2246 1.33008H16.8926L17.0977 0.691406ZM20.9004 0.691406L21.1055 1.33008H21.7793L21.2344 1.72266L21.4453 2.36719L20.9004 1.96875L20.3555 2.36133L20.5664 1.72266L20.0215 1.33008H20.6953L20.9004 0.691406ZM3.80273 2.30859L4.00781 2.94726H4.68164L4.13672 3.33984L4.33594 3.97851L3.80859 3.58594L3.26367 3.97851L3.45703 3.33984L2.92969 2.94726H3.59766L3.80273 2.30859ZM7.59961 2.30859L7.81055 2.94726H8.47852L7.93359 3.33984L8.14453 3.97851L7.59961 3.58594L7.05469 3.97851L7.26563 3.33984L6.7207 2.94726H7.39453L7.59961 2.30859ZM11.4023 2.30859L11.6074 2.94726H12.2813L11.7363 3.33984L11.9414 3.97851L11.4023 3.58594L10.8574 3.97851L11.0625 3.33984L10.5234 2.94726H11.1914L11.4023 2.30859ZM15.1992 2.30859L15.4102 2.94726H16.0781L15.5332 3.33984L15.7441 3.97851L15.1992 3.58594L14.6602 3.97851L14.8652 3.33984L14.3203 2.94726H15L15.1992 2.30859ZM19.002 2.30859L19.207 2.94726H19.8809L19.3359 3.33984L19.541 3.97851L19.002 3.58594L18.457 3.97851L18.6621 3.33984L18.123 2.94726H18.791L19.002 2.30859ZM1.89844 3.91992L2.10938 4.57031H2.77734L2.23828 4.96289L2.44336 5.60156L1.89844 5.20312L1.35938 5.60156L1.56445 4.95703L1.01953 4.56445H1.69922L1.89844 3.91992ZM5.70117 3.91992L5.90625 4.56445H6.58008L6.03516 4.95703L6.24023 5.5957L5.70117 5.19726L5.15625 5.5957L5.36133 4.95117L4.82227 4.55859H5.49023L5.70117 3.91992ZM9.49805 3.91992L9.70899 4.56445H10.3711L9.83203 4.95703L10.0371 5.5957L9.49219 5.19726L8.95313 5.5957L9.15821 4.95117L8.61328 4.55859H9.28711L9.49805 3.91992ZM13.3008 3.91992L13.5059 4.56445H14.1797L13.6348 4.95703L13.8457 5.5957L13.3008 5.19726L12.7559 5.5957L12.9668 4.95117L12.4219 4.55859H13.0898L13.3008 3.91992ZM17.0977 3.91992L17.3086 4.56445H17.9766L17.4375 4.95703L17.6426 5.5957L17.0977 5.19726L16.5586 5.5957L16.7637 4.95117L16.2246 4.55859H16.8926L17.0977 3.91992ZM20.9004 3.91992L21.1055 4.56445H21.7793L21.2344 4.95703L21.4453 5.5957L20.9004 5.19726L20.3555 5.5957L20.5664 4.95117L20.0215 4.55859H20.6953L20.9004 3.91992ZM3.80273 5.53711L4.00781 6.17578H4.68164L4.13672 6.56836L4.3418 7.21289L3.80273 6.81445L3.25781 7.20703L3.46289 6.56836L2.92383 6.17578H3.5918L3.80273 5.53711ZM7.59961 5.53711L7.81055 6.17578H8.47852L7.93359 6.56836L8.14453 7.21289L7.59961 6.81445L7.05469 7.20703L7.26563 6.56836L6.7207 6.17578H7.39453L7.59961 5.53711ZM11.4023 5.53711L11.6074 6.17578H12.2813L11.7363 6.56836L11.9414 7.21289L11.4023 6.81445L10.8574 7.20703L11.0625 6.56836L10.5234 6.17578H11.1914L11.4023 5.53711ZM15.1992 5.53711L15.4102 6.17578H16.0781L15.5391 6.56836L15.7441 7.21289L15.1992 6.81445L14.6602 7.20703L14.8652 6.56836L14.3203 6.17578H15L15.1992 5.53711ZM19.002 5.53711L19.207 6.17578H19.8809L19.3359 6.56836L19.541 7.21289L19.002 6.81445L18.457 7.20703L18.6621 6.56836L18.123 6.17578H18.791L19.002 5.53711ZM1.89844 7.15429L2.10938 7.79297H2.77734L2.23828 8.18554L2.44336 8.83007L1.89844 8.43164L1.35938 8.82422L1.56445 8.18554L1.01953 7.79297H1.69922L1.89844 7.15429ZM5.70117 7.15429L5.90625 7.79297H6.58008L6.03516 8.18554L6.24023 8.82422L5.70117 8.43164L5.15625 8.82422L5.36133 8.18554L4.82227 7.79297H5.49023L5.70117 7.15429ZM9.49805 7.15429L9.70899 7.79297H10.3711L9.83203 8.18554L10.0371 8.83007L9.49219 8.43164L8.95313 8.82422L9.15821 8.18554L8.61328 7.79297H9.28711L9.49805 7.15429ZM13.3008 7.15429L13.5059 7.79297H14.1797L13.6348 8.18554L13.8457 8.83007L13.3008 8.43164L12.7559 8.82422L12.9668 8.18554L12.4219 7.79297H13.0898L13.3008 7.15429ZM17.0977 7.15429L17.3086 7.79297H17.9766L17.4375 8.18554L17.6426 8.83007L17.0977 8.43164L16.5586 8.82422L16.7637 8.18554L16.2246 7.79297H16.8926L17.0977 7.15429ZM20.9004 7.15429L21.1055 7.79297H21.7793L21.2344 8.18554L21.4453 8.83007L20.9004 8.43164L20.3555 8.82422L20.5664 8.18554L20.0215 7.79297H20.6953L20.9004 7.15429ZM3.80273 8.77148L4.00781 9.41015H4.68164L4.13672 9.80273L4.3418 10.4414L3.80273 10.043L3.25781 10.4414L3.46289 9.79687L2.92383 9.40429H3.5918L3.80273 8.77148ZM7.59961 8.77148L7.81055 9.41015H8.47852L7.93359 9.80273L8.14453 10.4414L7.59961 10.043L7.05469 10.4414L7.26563 9.79687L6.7207 9.40429H7.39453L7.59961 8.77148ZM11.4023 8.77148L11.6074 9.41015H12.2813L11.7363 9.80273L11.9414 10.4414L11.4023 10.043L10.8574 10.4414L11.0625 9.79687L10.5234 9.40429H11.1914L11.4023 8.77148ZM15.1992 8.77148L15.4102 9.41015H16.0781L15.5391 9.80273L15.7441 10.4414L15.1992 10.043L14.6602 10.4414L14.8652 9.79687L14.3203 9.40429H15L15.1992 8.77148ZM19.002 8.77148L19.207 9.41015H19.8809L19.3359 9.80273L19.541 10.4414L19.002 10.043L18.457 10.4414L18.6621 9.79687L18.123 9.40429H18.791L19.002 8.77148ZM1.89844 10.3828L2.10938 11.0273H2.77734L2.23828 11.4199L2.44336 12.0527L1.89844 11.6602L1.35938 12.0527L1.56445 11.4141L1.01953 11.0215H1.69922L1.89844 10.3828ZM5.70117 10.3828L5.90625 11.0273H6.58008L6.03516 11.4199L6.24609 12.0527L5.70117 11.6602L5.15625 12.0527L5.36719 11.4141L4.82227 11.0215H5.49023L5.70117 10.3828ZM9.49805 10.3828L9.70899 11.0273H10.3711L9.83203 11.4199L10.0371 12.0527L9.49219 11.6602L8.95313 12.0527L9.15821 11.4141L8.61328 11.0215H9.28711L9.49805 10.3828ZM13.3008 10.3828L13.5059 11.0273H14.1797L13.6348 11.4199L13.8457 12.0527L13.3008 11.6602L12.7559 12.0527L12.9668 11.4141L12.4219 11.0215H13.0898L13.3008 10.3828ZM17.0977 10.3828L17.3086 11.0273H17.9766L17.4375 11.4199L17.6426 12.0527L17.0977 11.6602L16.5586 12.0527L16.7637 11.4141L16.2246 11.0215H16.8926L17.0977 10.3828ZM20.9004 10.3828L21.1055 11.0273H21.7793L21.2344 11.4199L21.4453 12.0527L20.9004 11.6602L20.3555 12.0527L20.5664 11.4141L20.0215 11.0215H20.6953L20.9004 10.3828ZM3.80273 12L4.00781 12.6387H4.68164L4.13672 13.0312L4.3418 13.6758L3.80273 13.2773L3.25781 13.6699L3.46289 13.0312L2.92383 12.6387H3.5918L3.80273 12ZM7.59961 12L7.81055 12.6387H8.47852L7.93359 13.0312L8.14453 13.6758L7.59961 13.2773L7.05469 13.6699L7.26563 13.0312L6.7207 12.6387H7.39453L7.59961 12ZM11.4023 12L11.6074 12.6387H12.2813L11.7363 13.0312L11.9414 13.6758L11.4023 13.2773L10.8574 13.6699L11.0625 13.0312L10.5234 12.6387H11.1914L11.4023 12ZM15.1992 12L15.4102 12.6387H16.0781L15.5391 13.0312L15.7441 13.6758L15.1992 13.2773L14.6602 13.6699L14.8652 13.0312L14.3203 12.6387H15L15.1992 12ZM19.002 12L19.207 12.6387H19.8809L19.3359 13.0312L19.541 13.6758L19.002 13.2773L18.457 13.6699L18.6621 13.0312L18.123 12.6387H18.791L19.002 12ZM1.89844 13.6172L2.10938 14.2559H2.77734L2.23828 14.6484L2.44336 15.2871L1.89844 14.8945L1.35938 15.2871L1.56445 14.6426L1.01953 14.25H1.69922L1.89844 13.6172ZM5.70117 13.6172L5.90625 14.2559H6.58008L6.03516 14.6484L6.24609 15.2871L5.70117 14.8945L5.15625 15.2871L5.36719 14.6426L4.82227 14.25H5.49023L5.70117 13.6172ZM9.49805 13.6172L9.70899 14.2559H10.3711L9.84375 14.6484L10.0488 15.2871L9.50391 14.8945L8.96485 15.2871L9.16992 14.6426L8.625 14.25H9.29883L9.49805 13.6172ZM13.3008 13.6172L13.5059 14.2559H14.1797L13.6348 14.6484L13.8457 15.2871L13.3008 14.8945L12.7559 15.2871L12.9668 14.6426L12.4219 14.25H13.0898L13.3008 13.6172ZM17.0977 13.6172L17.3086 14.2559H17.9766L17.4375 14.6484L17.6426 15.2871L17.0977 14.8945L16.5586 15.2871L16.7637 14.6426L16.2246 14.25H16.8926L17.0977 13.6172ZM20.9004 13.6172L21.1055 14.2559H21.7793L21.2344 14.6484L21.4453 15.2871L20.9004 14.8945L20.3555 15.2871L20.5664 14.6426L20.0215 14.25H20.6953L20.9004 13.6172Z" fill="white"/>
</g>
<defs>
<clipPath id="clip0_0_39">
<rect width="40" height="30" fill="white"/>
</clipPath>
</defs>
</svg>
